<?xml version="1.0" encoding="UTF-8" standalone="no"?>
<!DOCTYPE svg PUBLIC "-//W3C//DTD SVG 1.1//EN" "http://www.w3.org/Graphics/SVG/1.1/DTD/svg11.dtd">
<svg width="100%" height="100%" viewBox="0 0 460 460" version="1.1" xmlns="http://www.w3.org/2000/svg" xmlns:xlink="http://www.w3.org/1999/xlink" xml:space="preserve" xmlns:serif="http://www.serif.com/" style="fill-rule:evenodd;clip-rule:evenodd;stroke-linecap:round;stroke-linejoin:round;stroke-miterlimit:1.5;">
    <g transform="matrix(0.983842,0,0,0.983842,3.716312,3.809924)">
        <path d="M135.603,0C179.478,-3.324 230,37.987 230,37.987C230,37.987 264.114,-0.255 324.059,0C384.004,0.255 456.576,48.028 460,125.926L460,199.455L376.799,198.481L376.799,124.478C376.799,124.478 365.298,81.46 325.765,82.628C286.231,83.797 273.378,116.124 271.626,125.862C269.873,135.599 270.652,199.086 270.652,199.086L189.248,199.086L189.443,129.367C189.443,129.367 182.627,82.434 135.693,82.628C88.76,82.823 85.254,128.199 84.086,126.835C82.917,125.472 83.112,331.513 83.112,331.513C83.112,331.513 88.37,376.888 134.72,376.109C181.069,375.33 339.981,375.136 339.981,375.136C339.981,375.136 379.514,366.404 377.372,315.154L188.859,314.927L189.443,232.939L460,233.524L460,328.949C460,328.949 456.919,448.887 327.712,460L127.424,460C127.424,460 5.782,449.871 0,326.222L0,130.908C0,130.908 0.757,10.215 135.603,0Z" style="fill:rgb(231,60,0);stroke:black;stroke-width:3.05px;"/>
    </g>
</svg>
